<?xml version="1.0" standalone="no"?>
<!DOCTYPE svg PUBLIC "-//W3C//DTD SVG 20010904//EN"
 "http://www.w3.org/TR/2001/REC-SVG-20010904/DTD/svg10.dtd">
<svg version="1.0" xmlns="http://www.w3.org/2000/svg"
 width="1024.000000pt" height="1024.000000pt" viewBox="0 0 1024.000000 1024.000000"
 preserveAspectRatio="xMidYMid meet">
<metadata>
Created by potrace 1.11, written by Peter Selinger 2001-2013
</metadata>
<g transform="translate(0.000000,1024.000000) scale(0.100000,-0.100000)"
fill="#000000" stroke="none">
<path d="M4501 9955 c-23 -25 -39 -50 -35 -56 3 -6 44 -10 97 -9 51 1 96 1
100 1 5 -1 -15 -21 -45 -45 -40 -33 -57 -42 -70 -35 -24 13 -67 10 -113 -6
-34 -12 -41 -12 -48 0 -11 20 -80 19 -120 -1 -35 -18 -146 -105 -217 -170 -25
-22 -71 -55 -103 -74 -33 -18 -92 -59 -132 -91 -40 -32 -97 -70 -126 -85 -127
-64 -253 -168 -403 -332 -120 -132 -261 -301 -331 -397 -32 -44 -85 -109 -118
-145 -212 -232 -350 -476 -386 -684 -14 -81 -7 -127 24 -156 23 -22 24 -25 18
-159 -8 -195 11 -291 88 -444 40 -77 65 -244 79 -510 l9 -178 -68 -102 c-72
-107 -176 -278 -210 -345 -11 -22 -32 -54 -47 -71 -14 -17 -55 -89 -91 -159
-35 -70 -75 -140 -87 -157 -13 -16 -44 -69 -70 -116 -73 -136 -131 -323 -186
-598 -16 -85 -44 -203 -60 -263 -61 -219 -91 -460 -105 -833 -4 -88 -15 -272
-26 -408 -11 -137 -17 -264 -13 -282 3 -20 16 -41 30 -50 23 -15 24 -19 24
-159 0 -153 6 -206 23 -206 6 0 23 11 37 25 l27 25 -3 163 -3 162 14 -203 c22
-318 91 -983 120 -1155 8 -48 15 -111 15 -139 0 -49 17 -186 41 -338 19 -121
97 -298 196 -447 l34 -52 -30 -60 c-17 -33 -31 -63 -31 -66 0 -16 29 0 66 36
l41 40 17 -25 c22 -34 36 -33 74 7 31 32 42 67 22 67 -18 0 -10 26 15 50 14
13 25 29 25 37 0 7 17 21 37 32 21 11 88 55 148 98 109 77 115 79 340 155 219
73 810 248 840 248 8 0 38 -15 67 -34 29 -18 71 -43 93 -55 22 -11 58 -32 80
-45 263 -162 439 -243 654 -302 69 -19 180 -54 246 -78 164 -61 432 -142 535
-162 114 -22 553 -21 627 1 26 8 57 15 69 15 12 0 37 11 56 23 28 20 52 25
139 30 128 8 146 13 198 57 51 44 54 65 9 56 -18 -4 -84 -10 -146 -13 l-113
-5 7 26 c7 30 -15 37 -36 11 -7 -8 -17 -15 -23 -15 -6 0 -33 -21 -60 -48 l-48
-47 -231 -3 c-265 -4 -384 9 -542 59 -54 17 -131 39 -171 49 -41 10 -104 31
-142 46 -156 61 -194 74 -322 109 -163 45 -234 74 -410 167 -196 103 -194 102
-227 124 -16 12 -57 36 -92 55 -58 32 -76 49 -51 49 23 0 187 84 256 132 82
57 245 221 269 271 24 51 62 65 194 72 120 7 298 31 337 46 30 11 28 1 -7 -40
-21 -25 -34 -32 -50 -28 -16 4 -33 -4 -61 -30 -21 -19 -39 -41 -39 -48 0 -6
18 -20 40 -30 30 -13 42 -26 48 -48 4 -17 13 -32 18 -34 6 -2 30 17 53 42 l43
46 49 -10 c73 -16 225 -75 363 -141 305 -145 374 -180 411 -210 40 -32 155
-90 179 -90 37 0 334 -162 496 -270 117 -79 187 -113 219 -107 18 4 40 -3 71
-23 222 -139 548 -290 626 -290 13 0 24 -8 27 -20 5 -19 14 -20 117 -20 97 0
111 -2 100 -15 -15 -18 -3 -38 19 -32 157 45 347 89 470 107 77 12 89 17 128
53 24 22 43 46 43 53 0 21 -34 17 -180 -21 -74 -19 -136 -32 -139 -30 -2 3 3
13 12 23 24 27 21 34 -11 28 -29 -7 -108 16 -182 54 -68 34 -73 40 -54 61 41
46 -41 36 -91 -11 l-24 -23 -78 28 c-43 15 -82 31 -87 36 -4 4 6 20 24 37 36
32 34 46 -7 56 -48 11 -83 28 -83 40 0 6 -30 24 -67 40 -36 17 -83 47 -105 68
-22 21 -53 45 -69 54 -16 8 -29 17 -29 20 0 4 13 23 30 44 57 72 120 229 120
299 0 12 22 76 50 144 27 67 75 200 106 294 47 143 59 171 71 161 11 -9 24 -1
63 37 28 27 50 55 50 62 0 25 -35 12 -74 -27 -22 -22 -41 -38 -43 -37 -1 2 12
60 29 130 22 90 35 127 45 127 8 0 17 -9 20 -20 3 -11 14 -20 24 -20 19 0 202
-126 319 -220 80 -64 162 -110 287 -161 54 -22 133 -59 176 -82 l77 -41 41 40
c35 34 40 43 35 72 -3 18 -25 67 -50 109 -26 41 -46 79 -46 84 0 5 21 -1 47
-12 l46 -20 34 33 c39 37 42 54 11 64 -53 16 -214 103 -374 202 -160 99 -171
108 -157 124 9 10 13 24 10 32 -8 19 139 40 238 34 88 -6 140 -33 229 -120
l60 -58 35 34 34 34 -27 34 c-37 45 -132 124 -176 145 -28 14 -58 18 -150 17
-97 -1 -137 -7 -255 -38 -77 -20 -146 -36 -153 -36 -7 0 -41 18 -76 40 -35 22
-68 40 -74 40 -6 0 -23 -16 -38 -35 -15 -20 -35 -35 -48 -35 -11 0 -30 -7 -40
-15 -29 -22 -39 -18 -32 10 14 54 36 345 47 625 20 478 -11 1756 -52 2115 -65
582 -224 940 -482 1091 -89 52 -196 85 -299 91 -102 7 -97 -2 -58 108 12 33
42 139 67 235 50 196 25 155 248 420 227 270 245 295 245 349 0 41 -3 49 -25
59 -39 18 -59 15 -85 -13 -14 -15 -35 -25 -50 -25 -43 0 -151 60 -201 112 -44
46 -46 51 -52 121 -4 40 -18 129 -32 198 -43 206 -54 272 -55 326 0 28 -4 54
-8 57 -5 3 -26 -12 -47 -34 l-38 -39 7 -78 c4 -43 20 -140 37 -216 30 -140 38
-212 17 -152 -6 17 -28 75 -50 130 -31 78 -45 135 -64 255 -24 160 -51 281
-83 378 -159 484 -770 996 -1291 1082 -41 7 -108 27 -150 45 -180 77 -308 104
-523 112 -87 3 -160 10 -163 14 -11 18 -33 7 -73 -36z m369 -85 c19 0 57 -5
85 -12 40 -9 46 -13 30 -19 -11 -4 -39 -8 -62 -8 -33 -1 -48 -8 -78 -37 -20
-19 -35 -37 -32 -40 2 -2 51 1 108 7 148 16 295 7 355 -21 61 -30 228 -155
279 -210 l40 -43 -30 6 c-16 4 -104 22 -195 42 -247 52 -313 60 -424 47 -57
-6 -110 -19 -135 -32 -51 -26 -121 -87 -121 -106 0 -19 3 -18 66 18 51 28 67
32 158 36 99 4 131 0 356 -44 154 -30 364 -83 425 -107 56 -21 69 -33 189
-172 191 -223 516 -665 516 -703 0 -5 -9 -17 -20 -27 -27 -24 -25 -34 7 -46
16 -6 43 -22 61 -36 l34 -26 36 36 c35 35 35 37 18 56 -12 13 -14 21 -6 26 29
18 -160 300 -422 627 -65 82 -118 150 -118 154 0 3 24 -7 53 -23 115 -61 334
-317 441 -515 49 -90 186 -407 207 -475 11 -38 10 -45 -5 -62 -17 -19 -17 -21
8 -64 31 -53 36 -130 9 -159 -12 -13 -14 -21 -6 -26 6 -4 19 -31 29 -61 15
-47 16 -78 10 -270 l-7 -216 44 43 c24 23 46 40 49 37 2 -3 4 -31 2 -63 -8
-164 -7 -176 4 -180 6 -2 17 6 24 17 26 42 31 20 26 -104 l-6 -125 -53 -72
c-29 -40 -68 -92 -87 -115 l-33 -42 -39 76 -40 76 25 29 c45 53 29 72 -22 26
l-21 -20 -75 79 c-41 43 -109 105 -151 138 -52 41 -75 67 -76 82 0 38 -20 37
-61 -3 -59 -58 -54 -80 36 -150 104 -81 200 -171 243 -229 38 -52 92 -145 92
-159 0 -3 -12 -17 -26 -33 -27 -29 -19 -42 16 -23 28 15 38 5 18 -17 -8 -10
-25 -35 -37 -57 l-22 -39 21 -14 c11 -8 20 -20 20 -27 0 -20 -48 -105 -91
-163 -34 -46 -47 -55 -102 -72 -104 -32 -258 -92 -330 -128 l-68 -34 50 68
c27 37 92 114 145 170 53 57 96 107 96 113 0 22 -43 8 -106 -35 -36 -25 -72
-45 -80 -45 -22 0 -114 -90 -114 -111 0 -27 15 -24 67 16 25 19 50 35 55 35 5
0 -24 -39 -63 -87 -39 -49 -78 -103 -87 -120 -12 -23 -43 -47 -107 -84 -50
-28 -140 -84 -202 -124 -99 -64 -118 -73 -174 -79 -34 -3 -64 -4 -66 -2 -2 2
20 17 50 34 101 57 357 278 357 308 0 24 -14 16 -77 -41 -34 -30 -64 -55 -67
-55 -14 0 -3 20 34 63 22 25 36 48 31 51 -15 9 -122 -105 -143 -152 -33 -73
-161 -142 -318 -172 -52 -10 -279 -39 -308 -40 -7 0 -10 5 -6 11 9 16 -46 3
-113 -27 -30 -14 -81 -28 -113 -32 -40 -6 -68 -17 -90 -35 -21 -18 -43 -27
-68 -27 l-36 0 33 34 c26 27 43 35 86 40 77 9 236 64 264 91 l24 23 43 -21 44
-21 35 34 c19 19 35 37 35 40 0 3 -20 16 -45 28 -55 26 -135 98 -135 121 0 9
-15 26 -34 38 -47 30 -86 112 -86 180 0 29 -3 53 -7 53 -4 0 -21 -14 -39 -31
l-31 -30 -16 24 c-27 42 -195 370 -231 452 -31 73 -46 120 -91 288 -9 31 -21
57 -28 57 -7 0 -32 -19 -55 -42 -44 -41 -44 -41 -23 -57 14 -11 28 -42 41 -96
10 -44 33 -115 50 -158 30 -78 152 -320 226 -450 50 -86 171 -244 251 -326 35
-35 62 -65 60 -67 -6 -6 -183 -54 -198 -54 -10 0 -31 -11 -48 -25 l-30 -26 6
36 c4 26 2 35 -9 35 -20 0 -90 -74 -86 -91 2 -8 -16 -24 -45 -38 -63 -31 -228
-48 -352 -35 l-90 9 102 54 c59 31 119 72 144 97 45 46 36 59 -16 23 -54 -37
-208 -109 -280 -130 -87 -26 -182 -20 -232 14 -35 23 -45 44 -15 32 90 -37
205 -32 310 13 159 68 388 218 352 230 -6 2 -36 -11 -68 -29 -217 -124 -297
-159 -362 -159 -30 0 -30 0 -15 24 22 33 1 45 -29 17 -32 -30 -96 -26 -96 6 0
11 -7 14 -21 10 -23 -6 -95 26 -164 73 -42 29 -79 41 -132 44 -17 1 -35 5 -39
9 -9 8 -74 -51 -74 -67 0 -6 33 -43 72 -83 l72 -73 -54 0 c-85 0 -141 32 -242
138 -81 86 -148 171 -148 188 0 4 10 18 21 30 l21 23 -33 20 c-19 12 -38 23
-44 25 -5 2 3 18 20 35 l29 31 -27 27 -27 27 -30 -29 c-16 -16 -32 -27 -34
-24 -2 2 -14 27 -26 56 l-22 52 20 26 20 26 -25 45 c-18 32 -29 42 -36 35 -20
-20 -25 -12 -20 27 3 25 -1 50 -11 70 -22 42 -20 61 7 90 l22 24 -22 15 c-18
12 -20 18 -10 33 9 15 7 23 -8 40 -18 20 -18 21 9 49 l27 29 -30 49 c-38 61
-38 69 -4 105 23 25 26 32 15 48 -17 28 -15 40 10 67 12 13 17 23 12 23 -5 0
-9 42 -9 93 0 79 -2 92 -16 89 -12 -2 -18 8 -23 35 -10 66 -7 91 20 122 26 31
26 31 3 31 -20 0 -21 3 -16 49 7 60 43 148 66 161 13 7 14 11 3 21 -10 11 -21
4 -57 -31 -25 -25 -51 -59 -57 -77 -17 -47 -32 -41 -24 9 9 55 53 134 89 162
58 43 122 105 115 111 -11 12 -46 -5 -99 -47 -59 -46 -59 -48 -2 92 101 245
333 646 495 855 67 86 170 185 244 236 40 26 85 64 100 82 30 35 172 132 181
123 3 -2 -18 -32 -46 -66 -46 -55 -60 -80 -46 -80 21 0 95 56 169 128 52 51
78 71 62 49 -15 -20 -24 -42 -21 -47 10 -16 77 24 124 75 36 40 47 45 70 40
23 -5 34 0 64 34 20 22 56 50 79 62 24 12 55 33 71 47 27 25 27 25 27 4 0 -33
21 -27 65 18 40 41 76 51 114 30 14 -7 26 0 60 34 24 24 38 46 33 50 -22 13
-99 18 -135 8 -34 -10 -37 -9 -32 7 4 12 -2 21 -20 29 -14 6 -25 15 -25 19 1
10 42 40 104 75 42 24 59 28 96 23 25 -3 61 -6 80 -5z m-574 -151 c3 -6 -9
-27 -28 -46 -31 -31 -40 -34 -101 -37 -37 -2 -67 -3 -67 -1 0 3 101 70 125 83
26 15 62 15 71 1z m1419 -104 c192 -93 362 -222 542 -408 91 -96 205 -237 190
-237 -3 0 -24 26 -48 57 -64 86 -183 206 -244 248 -30 21 -110 58 -184 84
l-130 46 -140 138 c-78 77 -130 135 -118 132 12 -4 72 -31 132 -60z m-1240 -4
c-15 -14 -55 -23 -55 -13 0 15 12 22 39 22 15 0 21 -4 16 -9z m-201 -33 c-13
-24 -47 -58 -58 -58 -5 0 5 16 24 35 35 37 46 44 34 23z m-190 -107 c3 -5 -36
-34 -87 -64 -327 -196 -613 -477 -897 -887 -109 -157 -122 -157 -17 0 163 244
400 521 547 639 131 105 431 321 446 321 2 0 5 -4 8 -9z m-544 -257 c-34 -36
-94 -108 -135 -158 -40 -51 -97 -112 -127 -137 -29 -24 -86 -73 -127 -109 -41
-36 -72 -60 -70 -53 8 24 273 325 342 389 61 56 163 134 176 134 2 0 -25 -30
-59 -66z m-381 -453 c-118 -143 -265 -337 -330 -436 -43 -65 -79 -115 -79
-110 0 14 116 228 163 302 26 41 88 110 153 171 59 56 110 102 112 102 3 0 -6
-13 -19 -29z m-149 -268 c-132 -206 -229 -369 -294 -498 -75 -149 -86 -153
-23 -9 49 113 125 251 204 371 62 95 171 243 178 243 2 0 -27 -48 -65 -107z
m178 75 c-8 -13 -50 -84 -93 -158 -90 -155 -113 -191 -156 -240 -23 -27 -27
-29 -18 -10 44 89 263 430 276 430 3 0 -1 -10 -9 -22z m-472 -305 c-56 -114
-128 -295 -159 -402 -27 -95 -41 -95 -26 0 14 89 44 180 91 274 41 82 123 215
133 215 3 0 -15 -39 -39 -87z m188 -220 c-9 -21 -33 -81 -53 -133 -37 -98 -51
-100 -31 -6 10 48 79 176 95 176 3 0 -2 -17 -11 -37z m4042 -307 c3 -13 4 -38
2 -57 -3 -30 -4 -27 -13 24 -10 55 -2 82 11 33z m160 -111 c79 -44 135 -47
174 -10 34 33 60 25 60 -19 0 -38 -7 -49 -130 -195 -52 -63 -119 -144 -148
-180 -30 -36 -58 -68 -63 -69 -9 -4 -6 26 7 66 9 29 33 396 28 418 -8 31 -2
30 72 -11z m-4266 -45 c0 -5 -5 -10 -11 -10 -5 0 -7 5 -4 10 3 6 8 10 11 10 2
0 4 -4 4 -10z m-13 -137 c-3 -10 -5 -2 -5 17 0 19 2 27 5 18 2 -10 2 -26 0
-35z m-146 -141 c-5 -81 -11 -117 -23 -128 -14 -14 -17 -10 -36 43 -22 60 -41
136 -42 165 0 15 4 15 31 6 27 -9 34 -8 52 10 11 12 22 20 23 19 1 -1 -1 -53
-5 -115z m4168 -459 c-19 -99 -85 -269 -115 -293 -17 -15 -34 -4 -34 21 0 10
-5 19 -12 19 -6 0 1 13 16 29 23 24 26 34 21 63 -5 28 -2 41 17 64 13 16 41
55 63 87 21 31 41 57 45 57 4 0 3 -21 -1 -47z m121 -388 c90 -21 133 -39 199
-84 277 -189 434 -628 470 -1316 18 -341 36 -1084 35 -1445 -2 -447 -32 -1025
-56 -1072 -7 -14 -22 -18 -71 -18 -64 0 -121 -24 -133 -55 -4 -8 -10 -15 -15
-15 -11 0 -11 175 1 250 4 30 5 58 1 63 -4 4 -22 -8 -40 -27 -31 -32 -33 -39
-42 -137 -4 -57 -8 -331 -9 -608 l0 -503 -36 -69 c-46 -87 -82 -119 -134 -119
-21 0 -51 -5 -65 -10 -24 -9 -46 1 -223 109 -428 258 -717 402 -981 490 -206
69 -414 100 -521 78 -21 -5 10 14 75 46 99 49 189 117 174 132 -3 3 -52 -19
-110 -48 -124 -62 -239 -103 -264 -93 -16 6 -17 8 -1 24 22 25 20 32 -6 32
l-21 0 23 25 c13 14 21 27 18 30 -2 3 -62 8 -133 12 l-128 8 59 46 c71 56 127
85 179 94 38 7 105 57 105 78 0 17 -76 0 -141 -31 -35 -17 -110 -69 -166 -115
-101 -83 -103 -84 -170 -91 -128 -12 -532 -130 -698 -202 -44 -20 -152 -74
-240 -121 -168 -91 -292 -146 -306 -138 -4 3 -25 33 -45 68 -21 34 -66 104
-101 156 l-65 93 39 40 c95 100 151 119 213 73 l34 -25 33 32 c40 39 39 55 -7
79 -73 40 -142 15 -253 -90 -41 -39 -77 -71 -80 -71 -16 0 -15 36 2 54 30 33
63 103 59 128 -5 35 -33 33 -76 -6 -39 -35 -82 -48 -82 -24 0 7 -22 35 -49 63
-80 82 -228 255 -264 309 -253 376 -320 521 -346 748 -6 51 -16 111 -21 133
-12 51 -13 115 -1 115 5 0 16 -11 25 -25 28 -43 277 -294 371 -375 348 -297
713 -463 1176 -535 67 -10 97 -21 141 -49 31 -19 105 -61 163 -91 l108 -56 39
38 c22 21 44 47 48 59 12 30 71 44 245 54 83 5 200 18 260 29 158 30 391 103
424 135 14 14 46 29 71 35 110 25 266 87 330 131 14 9 49 20 77 23 100 11 211
82 271 173 46 68 43 82 -15 86 l-48 3 45 13 c184 50 224 67 277 116 31 28 53
56 51 65 -2 9 -23 22 -51 31 l-48 15 66 72 c57 62 80 103 59 103 -4 0 -64 -29
-133 -64 -123 -63 -665 -310 -824 -376 -44 -18 -98 -50 -122 -70 -25 -21 -59
-41 -77 -45 -59 -13 -401 -131 -488 -168 -105 -45 -197 -77 -222 -77 -10 0
-32 7 -49 16 -23 11 -29 20 -24 35 12 36 -35 22 -83 -26 -42 -43 -44 -46 -28
-63 9 -10 16 -21 16 -24 0 -9 -59 -28 -85 -28 -12 0 -30 -9 -40 -20 -37 -41
-74 -28 -373 134 -185 100 -219 122 -194 124 33 3 118 83 108 101 -4 6 -26 11
-49 11 -106 0 -260 60 -581 228 -275 144 -358 194 -619 374 -199 138 -222 162
-250 253 -8 28 -24 80 -36 118 -11 37 -21 86 -21 109 0 29 -6 47 -22 62 -13
12 -28 31 -35 42 -11 18 -13 17 -48 -18 l-38 -36 27 -53 c14 -29 26 -70 26
-90 0 -20 7 -50 15 -65 42 -80 2 -62 -89 40 -56 62 -70 86 -87 143 -22 74 -28
195 -10 217 6 7 10 24 9 37 -1 13 7 71 17 129 13 78 25 117 47 153 17 26 31
47 33 47 2 0 10 3 19 6 19 7 22 -26 5 -43 -15 -15 -3 -34 16 -27 12 5 14 -2 9
-39 -9 -62 8 -69 57 -21 31 30 39 45 39 74 0 46 18 107 33 117 7 5 28 27 46
50 39 49 34 74 -9 43 l-28 -20 15 51 c11 38 28 64 67 101 48 47 50 50 32 63
-10 8 -23 16 -29 18 -23 7 279 737 305 737 4 0 28 -13 55 -30 46 -28 176 -70
217 -70 11 0 47 -26 80 -59 68 -64 125 -97 231 -131 61 -20 94 -24 257 -26
164 -2 194 -5 250 -24 135 -48 313 -25 507 66 51 24 95 44 97 44 2 0 4 -6 4
-13 0 -21 419 -43 519 -28 89 14 186 53 295 120 55 33 97 51 131 55 173 23
394 108 586 225 18 11 37 17 45 14 7 -2 66 45 131 106 l118 110 85 15 c47 9
96 16 110 16 17 0 40 15 68 43 44 45 53 67 26 67 -18 0 -19 -2 24 73 l34 57
56 0 c32 0 86 -7 122 -15z m-349 -58 c-24 -23 -39 -35 -35 -27 46 77 57 91 68
80 7 -7 -2 -22 -33 -53z m57 -35 c-27 -45 -36 -52 -68 -52 -22 0 -21 4 25 50
55 56 77 57 43 2z m-3793 -109 c21 -38 46 -82 56 -99 l19 -31 -32 -41 c-18
-23 -36 -42 -40 -42 -11 0 -57 82 -79 141 l-20 51 26 44 c14 24 28 44 30 44 2
0 20 -30 40 -67z m3455 -98 c-43 -51 -349 -221 -476 -264 -79 -26 -185 -50
-178 -40 20 33 411 235 519 268 39 12 84 28 100 35 40 19 50 19 35 1z m-3575
-130 c35 -69 37 -77 22 -93 -14 -15 -187 -365 -187 -378 0 -3 -18 -42 -39 -88
-52 -108 -81 -182 -74 -189 3 -3 -4 -32 -15 -64 -11 -32 -26 -86 -33 -120 -11
-54 -20 -69 -62 -110 -33 -33 -47 -42 -44 -28 3 11 9 40 12 64 5 29 18 56 43
83 24 27 32 42 25 49 -14 14 -44 -2 -72 -37 -12 -15 -23 -25 -26 -22 -3 2 6
38 19 79 13 41 41 128 61 194 91 298 109 346 160 440 30 55 78 144 107 197 29
54 56 98 59 98 3 0 23 -34 44 -75z m230 55 c7 -11 -42 -100 -55 -100 -4 0 -13
7 -20 15 -10 12 -7 22 21 54 36 42 44 47 54 31z m140 -189 c9 -19 13 -36 11
-38 -5 -6 -124 51 -151 72 -19 15 -19 16 5 61 l24 46 48 -53 c27 -30 55 -69
63 -88z m-291 -88 c-41 -73 -159 -327 -177 -380 -7 -21 -17 -33 -28 -33 -12 0
-26 -15 -39 -40 -24 -47 -26 -72 -5 -64 10 4 1 -26 -27 -95 -22 -56 -45 -101
-50 -101 -5 0 -7 8 -4 18 3 9 10 37 16 62 7 25 25 84 41 132 16 48 29 93 29
100 0 7 7 27 16 43 8 17 31 68 51 115 56 138 62 150 114 259 l50 104 26 -26
26 -25 -39 -69z m-480 -120 c-33 -59 -80 -162 -105 -228 -26 -66 -56 -140 -68
-165 -20 -44 -21 -44 -15 -10 14 76 59 201 114 315 55 114 117 211 127 201 3
-2 -21 -53 -53 -113z m3010 37 c-19 -19 -127 -51 -193 -57 l-66 -5 20 21 c16
16 43 24 130 35 61 7 112 14 115 15 2 0 -1 -4 -6 -9z m-1902 -29 c64 -27 178
-51 246 -51 38 0 65 -5 78 -16 17 -14 11 -15 -76 -11 -99 5 -224 38 -285 78
-38 24 -19 24 37 0z m954 -100 c-8 -12 -144 -33 -186 -29 -24 2 -2 8 70 19 58
9 109 17 113 18 5 0 6 -3 3 -8z m-2251 -566 c-24 -72 -44 -118 -44 -103 -1 25
49 180 71 221 23 44 14 3 -27 -118z m198 -171 c-25 -30 -47 -54 -49 -54 -2 0
-4 16 -4 35 0 28 9 45 42 81 l42 46 8 -27 c6 -24 0 -36 -39 -81z m-139 -106
c-9 -58 -21 -88 -35 -88 -6 0 -9 6 -6 13 2 6 10 36 17 65 16 62 33 70 24 10z
m-279 -228 c-4 -12 -19 -107 -35 -213 -33 -223 -39 -205 -10 28 24 188 27 205
41 205 6 0 8 -9 4 -20z m75 -372 c0 -13 -5 -30 -10 -38 -7 -11 -10 -5 -10 23
0 20 5 37 10 37 6 0 10 -10 10 -22z m187 -217 c9 -25 8 -32 -8 -47 -18 -17
-19 -16 -19 29 0 54 11 60 27 18z m191 -247 l154 -116 -35 -37 c-30 -31 -35
-43 -35 -86 0 -27 8 -97 18 -155 10 -58 21 -131 25 -163 7 -64 50 -198 85
-267 33 -65 145 -253 204 -340 69 -105 138 -189 246 -304 76 -79 91 -100 78
-107 -56 -31 -163 -123 -287 -248 -134 -133 -165 -157 -291 -228 -14 -8 -53
-31 -87 -52 l-62 -39 -22 74 c-12 41 -25 74 -29 74 -10 0 -16 35 -40 245 -11
99 -24 195 -29 215 -5 19 -12 60 -16 90 -4 30 -9 62 -11 71 -3 9 7 30 21 47
14 16 25 33 25 36 0 11 -39 6 -46 -6 -5 -8 -13 14 -20 52 -21 107 -19 115 31
161 42 39 52 65 20 53 -19 -8 -42 31 -54 91 -6 28 -15 169 -21 315 -6 147 -17
324 -25 395 -8 72 -15 190 -15 264 l0 134 33 -27 c17 -14 101 -78 185 -142z
m-353 -255 c25 -642 42 -1283 35 -1292 -3 -4 -19 73 -34 170 -25 156 -29 223
-38 548 -13 469 -3 1003 18 982 2 -2 10 -185 19 -408z m-190 261 l-12 -105 -2
96 c-1 61 3 99 11 107 6 6 12 11 13 9 1 -1 -4 -49 -10 -107z m-15 -267 l-5
-158 -3 145 c-2 127 0 170 10 170 2 0 1 -71 -2 -157z m4665 -3 c-10 -11 -30
-20 -44 -20 -25 1 -25 2 9 20 45 25 58 25 35 0z m-3390 -163 c50 -28 162 -97
250 -153 88 -56 263 -160 389 -233 126 -72 232 -134 235 -137 12 -13 -78 9
-194 48 -151 50 -350 147 -480 233 -122 81 -310 233 -385 310 l-55 57 75 -37
c41 -21 116 -60 165 -88z m3265 46 c-1 -20 -64 -50 -167 -79 -62 -17 -113 -30
-113 -27 0 7 151 75 210 94 63 21 70 22 70 12z m95 -3 c-3 -5 -15 -10 -26 -10
-11 0 -17 5 -14 10 3 6 15 10 26 10 11 0 17 -4 14 -10z m-4638 -197 c-3 -10
-5 -4 -5 12 0 17 2 24 5 18 2 -7 2 -21 0 -30z m4423 -42 c0 -21 -53 -49 -112
-61 -53 -9 -68 -9 -92 3 l-28 15 33 18 c19 10 68 21 109 24 41 4 78 8 83 8 4
1 7 -2 7 -7z m-410 -181 c-20 -11 -240 -70 -264 -70 -30 0 -14 9 76 46 63 25
98 34 143 34 40 -1 55 -4 45 -10z m-557 -75 c-106 -50 -157 -65 -220 -65 -66
0 -61 10 17 36 60 19 236 62 260 62 8 0 -17 -15 -57 -33z m2518 -206 c20 -10
20 -11 3 -30 -9 -10 -23 -19 -29 -19 -18 0 -27 30 -14 46 14 17 15 17 40 3z
m-387 -220 c28 -16 49 -20 97 -17 l60 3 -6 -35 c-21 -111 -159 -575 -176 -594
-5 -6 -9 60 -9 155 0 90 -3 242 -7 337 -3 94 -3 172 0 172 3 0 22 -9 41 -21z
m-5257 -91 c-2 -13 -4 -5 -4 17 -1 22 1 32 4 23 2 -10 2 -28 0 -40z m6028 -75
c138 -50 252 -111 286 -154 17 -22 29 -43 26 -46 -8 -7 -162 58 -236 99 -47
26 -166 111 -196 140 -5 5 4 4 20 -2 17 -7 62 -23 100 -37z m-4865 -107 c0 -3
-4 -8 -10 -11 -5 -3 -10 -1 -10 4 0 6 5 11 10 11 6 0 10 -2 10 -4z m-141 -75
c-25 -32 -42 -42 -81 -50 -27 -6 -68 -20 -91 -31 l-42 -21 45 42 c58 53 137
99 173 99 l28 0 -32 -39z m1784 8 c-12 -12 -195 -80 -201 -75 -1 2 16 19 40
37 30 24 56 36 92 40 83 10 81 10 69 -2z m-193 -13 c0 -2 -8 -10 -17 -17 -16
-13 -17 -12 -4 4 13 16 21 21 21 13z m-1550 -25 c0 -13 -29 -35 -37 -28 -7 8
15 37 28 37 5 0 9 -4 9 -9z m1470 -35 c0 -11 -72 -47 -87 -44 -13 3 -7 10 22
26 37 20 65 27 65 18z m310 -6 c22 -14 12 -17 -65 -24 l-70 -6 45 19 c51 22
69 25 90 11z m-1736 -61 c-3 -10 2 -18 14 -21 10 -3 49 -51 86 -107 l68 -102
-21 -23 c-28 -30 -27 -36 9 -36 35 0 40 -17 7 -29 -37 -14 -496 -244 -568
-284 -36 -20 -104 -59 -150 -87 -45 -27 -85 -48 -87 -46 -10 10 112 156 159
191 143 105 379 309 379 327 0 19 -26 3 -112 -69 -97 -81 -213 -173 -237 -188
-16 -9 -17 -11 46 84 24 36 99 122 167 191 69 70 133 145 146 170 12 25 32 55
43 68 l21 23 18 -23 c9 -13 15 -30 12 -39z m-1014 -197 c11 -94 22 -182 26
-195 8 -36 -15 -45 -37 -16 -16 21 -19 45 -19 208 0 101 2 182 5 179 3 -3 14
-82 25 -176z m700 153 c0 -2 -10 -9 -22 -15 -22 -11 -22 -10 -4 4 21 17 26 19
26 11z m2852 -42 c59 -18 110 -38 113 -43 3 -5 -9 -4 -27 1 -18 5 -72 20 -119
33 -83 23 -129 41 -129 52 0 7 42 -4 162 -43z m-2756 -47 c-20 -24 -44 -47
-52 -50 -8 -3 6 19 32 49 56 65 73 66 20 1z m-151 -37 c-84 -85 -195 -183
-195 -172 0 21 228 233 249 233 3 0 -21 -27 -54 -61z m1176 25 c-18 -8 -36
-13 -39 -10 -6 7 37 25 58 25 8 -1 0 -7 -19 -15z m1329 -19 c71 -21 139 -60
127 -72 -2 -2 -33 10 -69 26 -35 16 -91 39 -124 50 -84 29 -34 26 66 -4z
m-1090 10 c0 -5 -78 -45 -135 -69 -58 -24 -31 -4 50 38 68 35 85 41 85 31z
m-320 -23 c-220 -105 -344 -162 -351 -162 -5 0 -9 6 -9 14 0 19 106 70 251
121 129 46 169 56 109 27z m420 0 c0 -21 -67 -96 -123 -138 -68 -51 -213 -126
-324 -168 l-73 -28 -42 24 c-23 13 -43 28 -45 33 -1 6 55 34 125 63 70 29 204
90 297 136 177 88 185 91 185 78z m-300 -76 c0 -2 -7 -7 -16 -10 -8 -3 -12 -2
-9 4 6 10 25 14 25 6z m-1595 -133 c-84 -82 -90 -85 -96 -62 -3 13 -2 31 2 40
9 17 155 108 174 108 6 0 -30 -39 -80 -86z m1475 77 c-8 -5 -19 -10 -25 -10
-5 0 -3 5 5 10 8 5 20 10 25 10 6 0 3 -5 -5 -10z m-95 -39 c-6 -5 -21 -11 -35
-15 -21 -5 -20 -3 5 9 35 17 42 18 30 6z m-370 -40 c3 -5 -30 -28 -72 -52 -43
-23 -93 -51 -110 -61 -18 -11 -33 -17 -33 -14 0 7 191 135 202 136 4 0 9 -4
13 -9z m-1011 -120 c-33 -44 -62 -80 -66 -80 -5 -1 -8 15 -8 34 0 28 5 37 23
44 12 5 40 27 61 50 22 22 42 39 44 36 3 -2 -22 -40 -54 -84z m250 57 c-26
-45 -88 -128 -96 -128 -10 0 17 42 67 102 30 38 42 48 29 26z m-423 -50 c10
-37 -2 -35 -25 3 -17 30 -17 31 0 27 10 -1 21 -15 25 -30z m898 28 c-10 -9
-69 -36 -69 -32 0 7 52 35 64 36 5 0 7 -2 5 -4z m447 -57 c19 -11 34 -24 34
-27 0 -4 -93 -34 -208 -66 -114 -33 -293 -88 -399 -123 -105 -34 -195 -63
-200 -63 -4 0 71 32 167 71 96 39 261 106 365 149 105 43 194 78 199 79 5 1
24 -8 42 -20z m-547 7 c-15 -12 -199 -105 -219 -110 -14 -4 27 20 90 53 97 51
147 73 129 57z m3449 -59 c28 -15 52 -29 52 -32 0 -7 -68 24 -126 57 -99 55
-49 39 74 -25z m-4435 -127 c96 -243 124 -327 111 -340 -7 -7 -24 15 -55 72
-78 141 -102 217 -134 413 -11 66 8 31 78 -145z m5068 55 c-16 -36 -34 -65
-38 -65 -4 0 -21 11 -38 24 l-29 23 29 16 c17 8 46 32 65 52 19 20 36 31 38
25 2 -6 -10 -39 -27 -75z m-4131 35 c-19 -17 -59 -43 -90 -60 -122 -66 -276
-140 -292 -140 -25 0 -98 -68 -98 -91 0 -12 -15 -26 -41 -39 -44 -23 -68 -17
-31 7 26 18 28 35 6 68 -15 23 -14 24 23 48 64 40 80 47 112 47 42 0 216 70
336 135 55 30 102 54 105 54 3 0 -11 -13 -30 -29z m-594 3 c-2 -10 -7 -33 -11
-50 -4 -18 -11 -33 -16 -33 -13 0 -11 57 3 80 16 25 31 26 24 3z m75 -116
c-40 -55 -61 -75 -61 -60 0 13 91 125 97 120 2 -3 -14 -30 -36 -60z m4698
-346 c49 -18 215 -130 206 -139 -9 -9 -285 109 -285 122 0 13 13 36 21 36 5 0
31 -8 58 -19z m432 -165 l54 -25 -56 0 c-54 -1 -56 0 -56 24 0 14 1 25 2 25 1
0 27 -11 56 -24z"/>
<path d="M5517 8082 c-20 -21 -37 -42 -37 -48 0 -15 46 -54 115 -99 80 -52
149 -118 262 -253 52 -62 104 -117 115 -123 17 -9 26 -5 59 27 l38 38 -40 34
c-22 19 -75 78 -119 132 -85 105 -168 182 -268 249 -35 24 -60 47 -56 53 6 9
-12 27 -26 28 -3 0 -23 -17 -43 -38z"/>
<path d="M3315 6090 l-39 -40 37 -15 c20 -8 40 -15 45 -15 11 0 77 69 71 75
-3 2 -21 11 -40 19 -36 15 -36 15 -74 -24z"/>
<path d="M5587 5222 c-20 -21 -37 -42 -37 -46 0 -4 -13 -25 -29 -45 -28 -35
-30 -36 -91 -33 l-62 4 46 47 c25 26 46 52 46 59 0 26 -29 9 -95 -59 -43 -43
-94 -83 -130 -101 -250 -127 -559 -422 -626 -598 -55 -144 7 -193 260 -207 66
-3 124 -9 130 -12 6 -4 0 -49 -15 -121 -28 -130 -74 -369 -74 -380 0 -17 -37
-20 -113 -10 l-80 11 -33 -32 c-24 -23 -31 -36 -24 -43 6 -6 60 -12 120 -14
74 -3 110 -8 110 -16 0 -6 -9 -69 -19 -141 -34 -233 -57 -532 -42 -555 9 -12
16 -9 44 18 l34 33 7 123 c6 126 27 324 48 458 12 77 13 78 46 84 18 4 35 4
38 2 2 -3 -11 -70 -30 -149 -65 -271 -88 -434 -66 -469 8 -13 15 -10 41 17 30
30 32 36 34 115 2 71 53 330 93 471 6 25 20 33 92 61 106 39 157 74 246 168
86 91 118 153 119 228 0 70 -29 120 -92 154 -41 24 -68 33 -145 50 -16 4 -28
13 -28 20 0 23 155 567 179 629 6 15 14 27 18 27 18 -1 33 -18 28 -32 -4 -9
-1 -19 5 -23 18 -11 105 79 97 99 -6 14 -54 50 -82 60 -13 4 18 58 62 111 57
67 31 99 -30 37z m-184 -213 c30 -8 37 -14 32 -27 -36 -89 -63 -173 -125 -392
-39 -140 -73 -261 -76 -268 -3 -10 -18 -12 -61 -6 -32 3 -60 8 -62 10 -3 3 2
28 55 250 35 149 83 308 116 386 19 44 27 51 73 57 6 0 27 -4 48 -10z m-206
-91 c-35 -78 -82 -234 -123 -405 -19 -82 -38 -157 -41 -167 -5 -17 -13 -18
-102 -13 -251 16 -294 58 -214 209 46 89 165 216 287 307 80 60 206 134 214
126 2 -1 -8 -27 -21 -57z m-4 -708 c4 -3 -10 -71 -32 -151 -22 -79 -49 -182
-61 -229 -13 -47 -30 -91 -38 -97 -23 -19 -72 -17 -72 3 0 17 87 460 95 481 4
13 92 8 108 -7z m185 -42 c23 -11 55 -36 70 -56 52 -68 28 -191 -50 -257 -40
-34 -159 -91 -212 -100 -34 -7 -38 -6 -33 11 3 11 31 113 63 227 l58 208 30
-6 c17 -4 50 -16 74 -27z"/>
<path d="M2397 4502 c-29 -30 -37 -46 -37 -75 0 -24 5 -37 13 -37 24 0 75 64
77 95 5 68 -1 70 -53 17z"/>
<path d="M2463 5379 c-34 -22 -42 -46 -21 -67 20 -20 34 -13 32 16 -1 18 7 35
24 50 32 28 9 29 -35 1z"/>
<path d="M2092 6076 c-67 -73 -72 -139 -6 -75 38 36 64 78 64 104 0 25 -15 17
-58 -29z"/>
<path d="M5091 1556 c-29 -30 -32 -38 -21 -51 19 -22 32 -19 68 18 31 32 41
57 23 57 -5 0 -15 2 -23 5 -7 3 -29 -10 -47 -29z"/>
</g>
</svg>
